<svg xmlns="http://www.w3.org/2000/svg" width="45" height="28" viewBox="0 0 45 28" fill="none">
  <path d="M13.2242 0.790574C13.74 -0.263523 15.26 -0.263525 15.7758 0.790571L18.0322 5.4018C18.3193 5.98839 18.978 6.30178 19.6213 6.15774L24.6778 5.02539C25.8336 4.76654 26.7813 5.94039 26.2686 6.99598L24.0259 11.6137C23.7406 12.2012 23.9033 12.9053 24.4183 13.3123L28.4672 16.5115C29.3928 17.2428 29.0546 18.7066 27.8994 18.9688L22.8464 20.1158C22.2036 20.2618 21.7477 20.8265 21.7467 21.478L21.7391 26.5997C21.7373 27.7705 20.3679 28.4219 19.4402 27.6933L15.3819 24.5058C14.8656 24.1004 14.1344 24.1004 13.6181 24.5058L9.55977 27.6933C8.63205 28.4219 7.26266 27.7705 7.26092 26.5997L7.2533 21.478C7.25233 20.8265 6.79644 20.2618 6.15365 20.1158L1.10056 18.9688C-0.0545479 18.7066 -0.392761 17.2428 0.532785 16.5115L4.58166 13.3123C5.09671 12.9053 5.25942 12.2012 4.97412 11.6137L2.7314 6.99598C2.21872 5.94039 3.16637 4.76654 4.32225 5.02539L9.37873 6.15773C10.022 6.30178 10.6807 5.98839 10.9678 5.4018L13.2242 0.790574Z" fill="#8FFF00"/>
  <path d="M36.2961 0.451756C36.5807 -0.150585 37.4193 -0.150586 37.7039 0.451755L38.9488 3.08674C39.1072 3.42194 39.4706 3.60102 39.8255 3.51871L42.6153 2.87165C43.253 2.72374 43.7759 3.39451 43.493 3.9977L42.2557 6.63643C42.0983 6.97209 42.188 7.37448 42.4722 7.60704L44.706 9.43516C45.2167 9.85305 45.0301 10.6895 44.3928 10.8393L41.6049 11.4948C41.2502 11.5781 40.9987 11.9008 40.9982 12.2731L40.994 15.1998C40.993 15.8688 40.2375 16.2411 39.7256 15.8247L37.4865 14.0033C37.2017 13.7716 36.7983 13.7716 36.5135 14.0033L34.2744 15.8247C33.7625 16.2411 33.007 15.8688 33.006 15.1998L33.0018 12.2731C33.0013 11.9008 32.7498 11.5781 32.3951 11.4948L29.6072 10.8393C28.9699 10.6895 28.7833 9.85306 29.294 9.43516L31.5278 7.60704C31.812 7.37448 31.9017 6.97209 31.7443 6.63643L30.507 3.99771C30.2241 3.39451 30.747 2.72374 31.3847 2.87165L34.1745 3.51871C34.5294 3.60102 34.8928 3.42194 35.0512 3.08674L36.2961 0.451756Z" fill="white"/>
</svg>